<?xml version="1.0" encoding="UTF-8"?>
<!DOCTYPE svg PUBLIC "-//W3C//DTD SVG 1.1//EN" "http://www.w3.org/Graphics/SVG/1.1/DTD/svg11.dtd">
<!-- Creator: CorelDRAW -->
<svg xmlns="http://www.w3.org/2000/svg" xml:space="preserve" width="147.691mm" height="27.8099mm" version="1.1" style="shape-rendering:geometricPrecision; text-rendering:geometricPrecision; image-rendering:optimizeQuality; fill-rule:evenodd; clip-rule:evenodd"
viewBox="0 0 3064.17 576.98"
 xmlns:xlink="http://www.w3.org/1999/xlink">
 <defs>
  <style type="text/css">
   <![CDATA[
    .fil1 {fill:#FD014C}
    .fil0 {fill:#373535;fill-rule:nonzero}
   ]]>
  </style>
 </defs>
 <g id="Layer_x0020_1">
  <metadata id="CorelCorpID_0Corel-Layer"/>
  <g id="_105553414007520">
   <g>
    <path class="fil0" d="M957.08 397.93c-22.39,0 -41.75,-4.87 -58.09,-14.61 -16.34,-9.74 -28.93,-23.73 -37.78,-41.98 -8.84,-18.25 -13.26,-39.79 -13.26,-64.64 0,-24.62 4.42,-46.06 13.26,-64.31 8.84,-18.25 21.44,-32.24 37.78,-41.98 16.34,-9.74 35.71,-14.61 58.09,-14.61 15,0 29.16,2.41 42.48,7.22 13.32,4.81 24.9,11.7 34.76,20.65 3.58,3.36 5.37,7.28 5.37,11.75 0,3.13 -0.89,5.88 -2.68,8.23 -1.79,2.35 -3.92,3.52 -6.38,3.52 -2.69,0 -5.93,-1.23 -9.74,-3.69 -11.42,-8.95 -21.77,-15.22 -31.06,-18.81 -9.29,-3.58 -19.98,-5.37 -32.07,-5.37 -25.97,0 -45.95,8.45 -59.94,25.35 -13.99,16.9 -20.99,40.91 -20.99,72.03 0,31.34 7,55.46 20.99,72.37 13.99,16.9 33.97,25.35 59.94,25.35 11.87,0 22.5,-1.79 31.9,-5.37 9.4,-3.58 19.81,-9.85 31.23,-18.81 3.81,-2.46 7.05,-3.69 9.74,-3.69 2.46,0 4.59,1.12 6.38,3.36 1.79,2.24 2.68,5.04 2.68,8.39 0,4.48 -1.79,8.39 -5.37,11.75 -9.85,8.95 -21.44,15.84 -34.76,20.65 -13.32,4.81 -27.48,7.22 -42.48,7.22z"/>
    <path class="fil0" d="M1230.41 397.93c-21.94,0 -41.03,-4.93 -57.26,-14.78 -16.23,-9.85 -28.71,-23.84 -37.44,-41.98 -8.73,-18.13 -13.1,-39.51 -13.1,-64.14 0,-24.85 4.31,-46.4 12.93,-64.64 8.62,-18.25 21.04,-32.24 37.27,-41.98 16.23,-9.74 35.43,-14.61 57.59,-14.61 22.16,0 41.36,4.87 57.59,14.61 16.23,9.74 28.65,23.73 37.27,41.98 8.62,18.25 12.93,39.68 12.93,64.31 0,24.63 -4.37,46.06 -13.1,64.31 -8.73,18.25 -21.21,32.29 -37.44,42.14 -16.23,9.85 -35.32,14.78 -57.25,14.78zm0 -23.51c25.07,0 44.6,-8.45 58.6,-25.35 13.99,-16.9 20.99,-41.02 20.99,-72.37 0,-31.34 -6.94,-55.41 -20.82,-72.2 -13.88,-16.79 -33.47,-25.18 -58.76,-25.18 -25.07,0 -44.61,8.45 -58.6,25.35 -13.99,16.9 -20.99,40.91 -20.99,72.03 0,31.12 7,55.18 20.99,72.2 13.99,17.01 33.52,25.52 58.6,25.52z"/>
    <path class="fil0" d="M1452.35 395.24c-3.81,0 -7,-1.17 -9.57,-3.52 -2.57,-2.35 -3.86,-5.43 -3.86,-9.23l0 -211.56c0,-4.25 1.23,-7.67 3.7,-10.24 2.46,-2.57 5.82,-3.86 10.07,-3.86 4.26,0 7.61,1.29 10.07,3.86 2.46,2.57 3.69,5.99 3.69,10.24l0 200.81 108.47 0c4.03,0 7.16,1.01 9.4,3.02 2.24,2.01 3.36,4.93 3.36,8.73 0,3.81 -1.12,6.72 -3.36,8.73 -2.24,2.01 -5.37,3.02 -9.4,3.02l-122.57 0z"/>
    <path class="fil0" d="M1684.7 395.24c-3.81,0 -7,-1.17 -9.57,-3.52 -2.57,-2.35 -3.86,-5.43 -3.86,-9.23l0 -211.56c0,-4.25 1.23,-7.67 3.7,-10.24 2.46,-2.57 5.82,-3.86 10.07,-3.86 4.26,0 7.61,1.29 10.07,3.86 2.46,2.57 3.69,5.99 3.69,10.24l0 200.81 108.47 0c4.03,0 7.16,1.01 9.4,3.02 2.24,2.01 3.36,4.93 3.36,8.73 0,3.81 -1.12,6.72 -3.36,8.73 -2.24,2.01 -5.37,3.02 -9.4,3.02l-122.57 0z"/>
    <path class="fil0" d="M2102.42 379.46c0.9,1.79 1.34,3.69 1.34,5.71 0,3.36 -1.29,6.16 -3.86,8.4 -2.57,2.24 -5.65,3.36 -9.23,3.36 -5.6,0 -9.51,-2.69 -11.75,-8.06l-23.84 -54.4 -126.6 0 -24.18 54.4c-2.24,5.37 -6.16,8.06 -11.75,8.06 -3.58,0 -6.72,-1.17 -9.4,-3.52 -2.69,-2.35 -4.03,-5.21 -4.03,-8.56 0,-1.79 0.45,-3.58 1.34,-5.37l96.04 -213.57c1.34,-3.13 3.36,-5.49 6.04,-7.05 2.69,-1.57 5.6,-2.35 8.73,-2.35 3.36,0 6.38,0.84 9.07,2.52 2.69,1.68 4.7,3.97 6.05,6.88l96.04 213.57zm-163.87 -67.83l106.45 0 -53.39 -120.55 -53.06 120.55z"/>
    <path class="fil0" d="M2328.05 273.68c13.66,3.58 24.23,10.3 31.73,20.15 7.5,9.85 11.25,22.16 11.25,36.94 0,20.82 -6.83,36.77 -20.48,47.85 -13.66,11.08 -33.02,16.62 -58.09,16.62l-84.62 0c-4.25,0 -7.67,-1.23 -10.24,-3.69 -2.57,-2.46 -3.86,-5.71 -3.86,-9.74l0 -209.88c0,-4.03 1.29,-7.27 3.86,-9.74 2.57,-2.46 5.99,-3.7 10.24,-3.7l80.93 0c24.4,0 43.32,5.37 56.75,16.12 13.43,10.75 20.15,25.97 20.15,45.67 0,12.76 -3.3,23.73 -9.91,32.91 -6.6,9.18 -15.84,16.01 -27.7,20.48zm-107.12 -10.07l63.8 0c17.68,0 31.06,-3.58 40.13,-10.75 9.07,-7.16 13.6,-17.57 13.6,-31.23 0,-26.86 -17.91,-40.3 -53.73,-40.3l-63.8 0 0 82.27zm68.84 108.8c18.58,0 32.29,-3.41 41.14,-10.24 8.84,-6.83 13.26,-17.52 13.26,-32.07 0,-29.1 -18.13,-43.65 -54.4,-43.65l-68.84 0 0 85.97 68.84 0z"/>
   </g>
   <g>
    <path class="fil0" d="M2544.96 396.92c-6.72,0 -12.03,-1.96 -15.95,-5.88 -3.92,-3.92 -5.88,-9.12 -5.88,-15.61l0 -181.33 -61.12 0c-13.43,0 -20.15,-5.93 -20.15,-17.8 0,-11.87 6.72,-17.8 20.15,-17.8l165.55 0c13.43,0 20.15,5.93 20.15,17.8 0,11.86 -6.72,17.8 -20.15,17.8l-61.12 0 0 181.33c0,6.49 -1.96,11.7 -5.88,15.61 -3.92,3.92 -9.12,5.88 -15.62,5.88z"/>
    <path class="fil0" d="M2748.32 397.26c-6.49,0 -11.7,-2.01 -15.62,-6.04 -3.92,-4.03 -5.88,-9.29 -5.88,-15.78l0 -197.12c0,-6.49 1.96,-11.7 5.88,-15.62 3.92,-3.92 9.12,-5.88 15.62,-5.88 6.72,0 12.03,1.96 15.95,5.88 3.92,3.92 5.88,9.12 5.88,15.62l0 197.12c0,6.49 -1.96,11.75 -5.88,15.78 -3.92,4.03 -9.23,6.04 -15.95,6.04z"/>
    <path class="fil0" d="M3058.8 364.35c3.58,4.26 5.37,8.51 5.37,12.76 0,5.37 -2.07,10.07 -6.21,14.1 -4.14,4.03 -8.9,6.04 -14.27,6.04 -5.6,0 -10.52,-2.46 -14.78,-7.39l-68.17 -84.62 -68.5 84.62c-4.03,4.7 -8.84,7.05 -14.44,7.05 -5.37,0 -10.13,-1.96 -14.27,-5.88 -4.14,-3.92 -6.21,-8.56 -6.21,-13.94 0,-4.48 1.68,-8.73 5.04,-12.76l73.21 -89.32 -70.18 -85.63c-3.36,-3.58 -5.04,-7.84 -5.04,-12.76 0,-5.37 2.01,-10.02 6.05,-13.94 4.03,-3.92 8.73,-5.88 14.1,-5.88 5.6,0 10.52,2.46 14.77,7.39l65.48 80.93 65.48 -80.93c4.03,-4.93 8.84,-7.39 14.44,-7.39 5.37,0 10.13,1.96 14.27,5.88 4.14,3.92 6.21,8.56 6.21,13.94 0,4.93 -1.68,9.18 -5.04,12.76l-70.18 85.63 72.87 89.32z"/>
   </g>
   <path class="fil1" d="M236.75 205.97c37.35,0 68.83,25.1 78.51,59.36l106.81 0c8.6,-57.86 50.28,-104.93 105.19,-121.36l0 -96.5 -479.99 0 0 482.04 479.99 0 0 -98.41c-54.91,-16.43 -96.59,-63.49 -105.19,-121.36l-106.81 0c-9.67,34.25 -41.16,59.36 -78.51,59.36 -45.05,0 -81.57,-36.52 -81.57,-81.57 0,-45.05 36.52,-81.57 81.57,-81.57zm337.77 -68.21c80.79,2.25 145.58,68.44 145.58,149.78 0,81.33 -64.8,147.52 -145.58,149.77l0 139.67 -574.52 0 0 -576.98 574.52 0 0 137.76z"/>
  </g>
 </g>
</svg>
